<?xml version="1.0" standalone="no"?>
<!DOCTYPE svg PUBLIC "-//W3C//DTD SVG 20010904//EN"
 "http://www.w3.org/TR/2001/REC-SVG-20010904/DTD/svg10.dtd">
<svg version="1.0" xmlns="http://www.w3.org/2000/svg"
 width="225.000000pt" height="225.000000pt" viewBox="0 0 225.000000 225.000000"
 preserveAspectRatio="xMidYMid meet">

<g transform="translate(0.000000,225.000000) scale(0.100000,-0.100000)"
fill="#000000" stroke="none">
<path d="M1705 2231 c-22 -11 -93 -74 -157 -138 l-118 -118 273 -273 273 -273
126 129 c104 105 128 136 138 173 14 51 7 115 -16 162 -21 42 -289 310 -331
331 -55 28 -141 31 -188 7z"/>
<path d="M827 1372 l-547 -547 64 -64 65 -64 48 41 c26 22 275 268 553 546
l505 506 -65 65 c-35 36 -67 65 -70 65 -3 0 -251 -246 -553 -548z"/>
<path d="M987 1212 l-547 -547 113 -113 112 -112 550 550 550 550 -110 110
c-60 60 -112 110 -115 110 -3 0 -251 -246 -553 -548z"/>
<path d="M1242 967 c-298 -298 -542 -547 -542 -553 0 -5 28 -38 63 -72 l62
-62 550 550 550 550 -65 65 c-35 36 -67 65 -70 65 -3 0 -249 -244 -548 -543z"/>
<path d="M196 568 l-56 -173 128 -127 127 -127 168 54 c93 29 172 56 175 60 6
6 -467 485 -480 485 -4 0 -32 -78 -62 -172z"/>
<path d="M101 282 c-6 -15 -31 -84 -55 -154 l-45 -127 122 44 c67 23 138 49
157 57 l35 15 -85 87 c-105 109 -114 114 -129 78z"/>
</g>
</svg>
