<?xml version="1.0" standalone="no"?>
<!DOCTYPE svg PUBLIC "-//W3C//DTD SVG 20010904//EN"
 "http://www.w3.org/TR/2001/REC-SVG-20010904/DTD/svg10.dtd">
<svg version="1.0" xmlns="http://www.w3.org/2000/svg"
 width="512.000000pt" height="512.000000pt" viewBox="0 0 512.000000 512.000000"
 preserveAspectRatio="xMidYMid meet">

<g transform="translate(0.000000,512.000000) scale(0.100000,-0.100000)"
fill="#ffffff" stroke="none">
<path d="M2421 5105 c-178 -39 -348 -172 -429 -336 -72 -146 -72 -140 -72
-896 l0 -673 -672 0 c-757 0 -751 0 -897 -72 -210 -103 -351 -332 -351 -568 0
-236 141 -465 351 -568 146 -72 140 -72 897 -72 l672 0 0 -672 c0 -757 0 -751
72 -897 103 -210 332 -351 568 -351 236 0 465 141 568 351 72 146 72 140 72
897 l0 672 673 0 c756 0 750 0 896 72 210 103 351 332 351 568 0 236 -141 465
-351 568 -146 72 -140 72 -896 72 l-673 0 0 673 c0 756 0 750 -72 896 -126
256 -423 397 -707 336z"/>
</g>
</svg>
